<svg width="13" height="10" viewBox="0 0 13 10" fill="none" xmlns="http://www.w3.org/2000/svg">
<path clip-rule="evenodd" d="M7.49492 9.79079C7.21598 9.51184 7.21598 9.05958 7.49492 8.78064L10.5612 5.71436L0.857145 5.71435C0.462655 5.71435 0.142859 5.39456 0.142859 5.00007C0.142859 4.60558 0.462656 4.28578 0.857145 4.28578L10.5613 4.28578L7.49492 1.21936C7.21598 0.940415 7.21598 0.488154 7.49492 0.209208C7.77387 -0.0697379 8.22613 -0.0697379 8.50508 0.209208L12.7908 4.49492C12.8669 4.57106 12.9223 4.6601 12.9569 4.755C12.9848 4.83144 13 4.91397 13 5.00007C13 5.11159 12.9744 5.21714 12.9289 5.31118C12.9076 5.35523 12.8815 5.39754 12.8506 5.43734C12.8303 5.46341 12.8084 5.48805 12.7848 5.51107L8.50508 9.79079C8.22613 10.0697 7.77387 10.0697 7.49492 9.79079Z" fill="#9B9B9B"/>
</svg>
